SplineFontDB: 3.2
FontName: Maulobesh
FullName: Maulobesh Blackletter
FamilyName: Maulobesh
Weight: Black
Copyright: CC0 public domain
Version: 1.0
ItalicAngle: 0
UnderlinePosition: 57.1289
UnderlineWidth: 37.5977
Ascent: 1000
Descent: 0
InvalidEm: 0
sfntRevision: 0x00010000
LayerCount: 2
Layer: 0 1 "Back" 1
Layer: 1 1 "Fore" 0
XUID: [1021 178 1911899458 7004]
StyleMap: 0x0040
FSType: 4
OS2Version: 2
OS2_WeightWidthSlopeOnly: 0
OS2_UseTypoMetrics: 0
CreationTime: 1589241192
ModificationTime: 1589249613
PfmFamily: 81
TTFWeight: 400
TTFWidth: 5
LineGap: 0
VLineGap: 0
Panose: 0 0 4 0 0 0 0 0 0 0
OS2TypoAscent: 773
OS2TypoAOffset: 0
OS2TypoDescent: 0
OS2TypoDOffset: 0
OS2TypoLinegap: 0
OS2WinAscent: 1257
OS2WinAOffset: 0
OS2WinDescent: 0
OS2WinDOffset: 0
HheadAscent: 1257
HheadAOffset: 0
HheadDescent: 0
HheadDOffset: 0
OS2SubXSize: 387
OS2SubYSize: 387
OS2SubXOff: 0
OS2SubYOff: 0
OS2SupXSize: 387
OS2SupYSize: 387
OS2SupXOff: 0
OS2SupYOff: 387
OS2StrikeYSize: 39
OS2StrikeYPos: 155
OS2CapHeight: 1257
OS2XHeight: 773
OS2Vendor: 'FSTR'
OS2CodePages: 00000001.00000000
OS2UnicodeRanges: 00000001.00000000.00000000.00000000
Lookup: 258 0 0 "'kern' Horizontal Kerning in Latin lookup 2" { "'kern' Horizontal Kerning in Latin lookup 2-2" [200,30,2] "'kern' Horizontal Kerning in Latin lookup 2-1" [307,10,2] } ['kern' ('DFLT' <'dflt' > 'latn' <'dflt' > ) ]
MarkAttachClasses: 1
DEI: 91125
ShortTable: maxp 16
  1
  0
  71
  32
  5
  0
  0
  2
  0
  0
  0
  0
  0
  0
  0
  0
EndShort
LangName: 1033 "" "" "Regular" "" "" "Version 1.0" "" "" "" "" "" "" "" "Creative Commons CC0 Public Domain Dedication" "http://creativecommons.org/publicdomain/zero/1.0/" "" "" "" "" "Jedi Knights are Sword Carrying Wizards who quote Flavourless Maxims about Peace"
Encoding: UnicodeBmp
UnicodeInterp: none
NameList: AGL For New Fonts
DisplaySize: -72
AntiAlias: 1
FitToEm: 0
WinInfo: 52 13 5
BeginPrivate: 0
EndPrivate

StartChar: .notdef
Encoding: 65536 -1 0
Width: 690
VWidth: 772
Flags: W
LayerCount: 2
Fore
SplineSet
582 9 m 1,0,-1
 298 383 l 1,1,-1
 13 9 l 1,2,-1
 582 9 l 1,0,-1
9 13 m 1,3,-1
 294 387 l 1,4,-1
 9 760 l 1,5,-1
 9 13 l 1,6,-1
 9 13 l 1,3,-1
585 13 m 1,7,-1
 585 760 l 1,8,-1
 301 387 l 1,9,-1
 585 13 l 1,10,-1
 585 13 l 1,7,-1
298 391 m 1,11,-1
 582 764 l 1,12,-1
 13 764 l 1,13,-1
 298 391 l 1,14,-1
 298 391 l 1,11,-1
0 0 m 1,15,-1
 0 773 l 1,16,-1
 595 773 l 1,17,-1
 595 0 l 1,18,-1
 0 0 l 1,15,-1
EndSplineSet
EndChar

StartChar: exclam
Encoding: 33 33 4
Width: 675
VWidth: 772
Flags: W
LayerCount: 2
Fore
SplineSet
435 97 m 1,0,-1
 48 290 l 1,1,-1
 241 387 l 1,2,-1
 628 193 l 1,3,-1
 435 97 l 1,4,-1
 435 97 l 1,0,-1
435 483 m 1,5,-1
 48 677 l 1,6,-1
 241 773 l 1,7,-1
 628 580 l 1,8,-1
 435 483 l 1,9,-1
 435 483 l 1,5,-1
EndSplineSet
EndChar

StartChar: comma
Encoding: 44 44 5
Width: 289
VWidth: 772
Flags: W
LayerCount: 2
Fore
SplineSet
48 0 m 1,0,-1
 48 290 l 1,1,-1
 241 387 l 1,2,-1
 241 97 l 1,3,-1
 48 0 l 1,4,-1
 48 0 l 1,0,-1
EndSplineSet
EndChar

StartChar: period
Encoding: 46 46 6
Width: 579
VWidth: 772
Flags: W
LayerCount: 2
Fore
SplineSet
48 0 m 1,0,-1
 48 290 l 1,1,-1
 241 387 l 1,2,-1
 241 97 l 1,3,-1
 48 0 l 1,4,-1
 48 0 l 1,0,-1
338 0 m 1,5,-1
 338 290 l 1,6,-1
 531 387 l 1,7,-1
 531 97 l 1,8,-1
 338 0 l 1,9,-1
 338 0 l 1,5,-1
EndSplineSet
EndChar

StartChar: zero
Encoding: 48 48 7
Width: 869
VWidth: 772
Flags: W
LayerCount: 2
Fore
SplineSet
97 580 m 1,0,-1
 97 773 l 1,1,-1
 0 870 l 1,2,-1
 193 967 l 1,3,-1
 290 870 l 1,4,-1
 290 677 l 1,5,-1
 97 580 l 1,6,-1
 97 580 l 1,0,-1
EndSplineSet
EndChar

StartChar: one
Encoding: 49 49 8
Width: 869
VWidth: 772
Flags: W
LayerCount: 2
Fore
SplineSet
97 580 m 1,0,-1
 97 773 l 1,1,-1
 0 870 l 1,2,-1
 193 967 l 1,3,-1
 290 870 l 1,4,-1
 290 677 l 1,5,-1
 97 580 l 1,6,-1
 97 580 l 1,0,-1
483 580 m 1,7,-1
 483 773 l 1,8,-1
 387 870 l 1,9,-1
 483 967 l 1,10,-1
 677 870 l 1,11,-1
 677 677 l 1,12,-1
 483 580 l 1,13,-1
 483 580 l 1,7,-1
EndSplineSet
EndChar

StartChar: two
Encoding: 50 50 9
Width: 869
VWidth: 772
Flags: W
LayerCount: 2
Fore
SplineSet
483 290 m 1,0,-1
 483 483 l 1,1,-1
 677 580 l 1,2,-1
 677 387 l 1,3,-1
 483 290 l 1,4,-1
 483 290 l 1,0,-1
97 580 m 1,5,-1
 97 773 l 1,6,-1
 0 870 l 1,7,-1
 193 967 l 1,8,-1
 290 870 l 1,9,-1
 290 677 l 1,10,-1
 97 580 l 1,11,-1
 97 580 l 1,5,-1
483 580 m 1,12,-1
 483 773 l 1,13,-1
 387 870 l 1,14,-1
 483 967 l 1,15,-1
 677 870 l 1,16,-1
 677 677 l 1,17,-1
 483 580 l 1,18,-1
 483 580 l 1,12,-1
EndSplineSet
EndChar

StartChar: three
Encoding: 51 51 10
Width: 869
VWidth: 772
Flags: W
LayerCount: 2
Fore
SplineSet
580 0 m 1,0,-1
 483 97 l 1,1,-1
 483 193 l 1,2,-1
 677 290 l 1,3,-1
 677 193 l 1,4,-1
 773 97 l 1,5,-1
 580 0 l 1,6,-1
 580 0 l 1,0,-1
483 290 m 1,7,-1
 483 483 l 1,8,-1
 677 580 l 1,9,-1
 677 387 l 1,10,-1
 483 290 l 1,11,-1
 483 290 l 1,7,-1
97 580 m 1,12,-1
 97 773 l 1,13,-1
 0 870 l 1,14,-1
 193 967 l 1,15,-1
 290 870 l 1,16,-1
 290 677 l 1,17,-1
 97 580 l 1,18,-1
 97 580 l 1,12,-1
483 580 m 1,19,-1
 483 773 l 1,20,-1
 387 870 l 1,21,-1
 483 967 l 1,22,-1
 677 870 l 1,23,-1
 677 677 l 1,24,-1
 483 580 l 1,25,-1
 483 580 l 1,19,-1
EndSplineSet
EndChar

StartChar: four
Encoding: 52 52 11
Width: 869
VWidth: 772
Flags: W
LayerCount: 2
Fore
SplineSet
97 290 m 1,0,-1
 97 773 l 1,1,-1
 0 870 l 1,2,-1
 193 967 l 1,3,-1
 290 870 l 1,4,-1
 290 387 l 1,5,-1
 97 290 l 1,6,-1
 97 290 l 1,0,-1
483 580 m 1,7,-1
 483 773 l 1,8,-1
 387 870 l 1,9,-1
 483 967 l 1,10,-1
 677 870 l 1,11,-1
 677 677 l 1,12,-1
 483 580 l 1,13,-1
 483 580 l 1,7,-1
EndSplineSet
EndChar

StartChar: five
Encoding: 53 53 12
Width: 869
VWidth: 772
Flags: W
LayerCount: 2
Fore
SplineSet
483 290 m 1,0,-1
 483 483 l 1,1,-1
 677 580 l 1,2,-1
 677 387 l 1,3,-1
 483 290 l 1,4,-1
 483 290 l 1,0,-1
97 290 m 1,5,-1
 97 773 l 1,6,-1
 0 870 l 1,7,-1
 193 967 l 1,8,-1
 290 870 l 1,9,-1
 290 387 l 1,10,-1
 97 290 l 1,11,-1
 97 290 l 1,5,-1
483 580 m 1,12,-1
 483 773 l 1,13,-1
 387 870 l 1,14,-1
 483 967 l 1,15,-1
 677 870 l 1,16,-1
 677 677 l 1,17,-1
 483 580 l 1,18,-1
 483 580 l 1,12,-1
EndSplineSet
EndChar

StartChar: six
Encoding: 54 54 13
Width: 869
VWidth: 772
Flags: W
LayerCount: 2
Fore
SplineSet
580 0 m 1,0,-1
 483 97 l 1,1,-1
 483 193 l 1,2,-1
 677 290 l 1,3,-1
 677 193 l 1,4,-1
 773 97 l 1,5,-1
 580 0 l 1,6,-1
 580 0 l 1,0,-1
483 290 m 1,7,-1
 483 483 l 1,8,-1
 677 580 l 1,9,-1
 677 387 l 1,10,-1
 483 290 l 1,11,-1
 483 290 l 1,7,-1
97 290 m 1,12,-1
 97 773 l 1,13,-1
 0 870 l 1,14,-1
 193 967 l 1,15,-1
 290 870 l 1,16,-1
 290 387 l 1,17,-1
 97 290 l 1,18,-1
 97 290 l 1,12,-1
483 580 m 1,19,-1
 483 773 l 1,20,-1
 387 870 l 1,21,-1
 483 967 l 1,22,-1
 677 870 l 1,23,-1
 677 677 l 1,24,-1
 483 580 l 1,25,-1
 483 580 l 1,19,-1
EndSplineSet
EndChar

StartChar: seven
Encoding: 55 55 14
Width: 869
VWidth: 772
Flags: W
LayerCount: 2
Fore
SplineSet
290 0 m 1,0,-1
 97 97 l 1,1,-1
 97 773 l 1,2,-1
 0 870 l 1,3,-1
 193 967 l 1,4,-1
 290 870 l 1,5,-1
 290 193 l 1,6,-1
 387 97 l 1,7,-1
 290 0 l 1,8,-1
 290 0 l 1,0,-1
483 580 m 1,9,-1
 483 773 l 1,10,-1
 387 870 l 1,11,-1
 483 967 l 1,12,-1
 677 870 l 1,13,-1
 677 677 l 1,14,-1
 483 580 l 1,15,-1
 483 580 l 1,9,-1
EndSplineSet
EndChar

StartChar: eight
Encoding: 56 56 15
Width: 869
VWidth: 772
Flags: W
LayerCount: 2
Fore
SplineSet
483 290 m 1,0,-1
 483 483 l 1,1,-1
 677 580 l 1,2,-1
 677 387 l 1,3,-1
 483 290 l 1,4,-1
 483 290 l 1,0,-1
290 0 m 1,5,-1
 97 97 l 1,6,-1
 97 773 l 1,7,-1
 0 870 l 1,8,-1
 193 967 l 1,9,-1
 290 870 l 1,10,-1
 290 193 l 1,11,-1
 387 97 l 1,12,-1
 290 0 l 1,13,-1
 290 0 l 1,5,-1
483 580 m 1,14,-1
 483 773 l 1,15,-1
 387 870 l 1,16,-1
 483 967 l 1,17,-1
 677 870 l 1,18,-1
 677 677 l 1,19,-1
 483 580 l 1,20,-1
 483 580 l 1,14,-1
EndSplineSet
EndChar

StartChar: nine
Encoding: 57 57 16
Width: 869
VWidth: 772
Flags: W
LayerCount: 2
Fore
SplineSet
580 0 m 1,0,-1
 483 97 l 1,1,-1
 483 193 l 1,2,-1
 677 290 l 1,3,-1
 677 193 l 1,4,-1
 773 97 l 1,5,-1
 580 0 l 1,6,-1
 580 0 l 1,0,-1
483 290 m 1,7,-1
 483 483 l 1,8,-1
 677 580 l 1,9,-1
 677 387 l 1,10,-1
 483 290 l 1,11,-1
 483 290 l 1,7,-1
290 0 m 1,12,-1
 97 97 l 1,13,-1
 97 773 l 1,14,-1
 0 870 l 1,15,-1
 193 967 l 1,16,-1
 290 870 l 1,17,-1
 290 193 l 1,18,-1
 387 97 l 1,19,-1
 290 0 l 1,20,-1
 290 0 l 1,12,-1
483 580 m 1,21,-1
 483 773 l 1,22,-1
 387 870 l 1,23,-1
 483 967 l 1,24,-1
 677 870 l 1,25,-1
 677 677 l 1,26,-1
 483 580 l 1,27,-1
 483 580 l 1,21,-1
EndSplineSet
EndChar

StartChar: question
Encoding: 63 63 17
Width: 579
VWidth: 772
Flags: W
LayerCount: 2
Fore
SplineSet
145 0 m 1,0,-1
 48 97 l 1,1,-1
 241 193 l 1,2,-1
 338 97 l 1,3,-1
 145 0 l 1,4,-1
 145 0 l 1,0,-1
48 483 m 1,5,-1
 48 773 l 1,6,-1
 241 870 l 1,7,-1
 241 677 l 1,8,-1
 48 483 l 1,9,-1
 48 483 l 1,5,-1
338 97 m 1,10,-1
 338 773 l 1,11,-1
 241 870 l 1,12,-1
 435 967 l 1,13,-1
 531 870 l 1,14,-1
 531 97 l 1,15,-1
 338 97 l 1,10,-1
EndSplineSet
EndChar

StartChar: A
Encoding: 65 65 18
Width: 869
VWidth: 772
Flags: W
LayerCount: 2
Fore
SplineSet
338 0 m 1,0,-1
 145 97 l 1,1,-1
 145 290 l 1,2,-1
 338 387 l 1,3,-1
 338 193 l 1,4,-1
 435 97 l 1,5,-1
 338 0 l 1,0,-1
628 0 m 1,6,-1
 531 97 l 1,7,-1
 531 387 l 1,8,-1
 338 387 l 1,9,-1
 531 483 l 1,10,-1
 725 387 l 1,11,-1
 725 193 l 1,12,-1
 821 97 l 1,13,-1
 628 0 l 1,6,-1
145 483 m 1,14,-1
 145 773 l 1,15,-1
 48 870 l 1,16,-1
 241 967 l 1,17,-1
 338 870 l 1,18,-1
 338 483 l 1,19,-1
 145 483 l 1,14,-1
338 580 m 1,20,-1
 531 677 l 1,21,-1
 531 773 l 1,22,-1
 435 870 l 1,23,-1
 531 967 l 1,24,-1
 725 870 l 1,25,-1
 725 677 l 1,26,-1
 531 580 l 1,27,-1
 338 580 l 1,20,-1
EndSplineSet
EndChar

StartChar: B
Encoding: 66 66 19
Width: 772
VWidth: 772
Flags: W
LayerCount: 2
Fore
SplineSet
338 0 m 1,0,-1
 145 97 l 1,1,-1
 145 290 l 1,2,-1
 338 387 l 1,3,-1
 338 193 l 1,4,-1
 531 97 l 1,5,-1
 338 0 l 1,0,-1
531 97 m 1,6,-1
 531 290 l 1,7,-1
 725 387 l 1,8,-1
 725 97 l 1,9,-1
 531 97 l 1,6,-1
435 387 m 1,10,-1
 241 483 l 1,11,-1
 435 580 l 1,12,-1
 628 483 l 1,13,-1
 435 387 l 1,10,-1
145 580 m 1,14,-1
 145 773 l 1,15,-1
 48 870 l 1,16,-1
 241 967 l 1,17,-1
 338 870 l 1,18,-1
 338 677 l 1,19,-1
 145 580 l 1,14,-1
531 580 m 1,20,-1
 531 773 l 1,21,-1
 338 870 l 1,22,-1
 531 967 l 1,23,-1
 725 870 l 1,24,-1
 725 677 l 1,25,-1
 531 580 l 1,20,-1
EndSplineSet
EndChar

StartChar: C
Encoding: 67 67 20
Width: 1255
VWidth: 772
Flags: W
LayerCount: 2
Fore
SplineSet
725 97 m 1,0,-1
 531 193 l 1,1,-1
 531 580 l 1,2,-1
 338 677 l 1,3,-1
 531 773 l 1,4,-1
 725 677 l 1,5,-1
 725 290 l 1,6,-1
 918 193 l 1,7,-1
 725 97 l 1,0,-1
1015 0 m 1,8,-1
 918 97 l 1,9,-1
 918 580 l 1,10,-1
 725 677 l 1,11,-1
 918 773 l 1,12,-1
 1111 677 l 1,13,-1
 1111 193 l 1,14,-1
 1208 97 l 1,15,-1
 1015 0 l 1,8,-1
338 97 m 1,16,-1
 145 193 l 1,17,-1
 145 773 l 1,18,-1
 48 870 l 1,19,-1
 241 967 l 1,20,-1
 338 870 l 1,21,-1
 338 290 l 1,22,-1
 531 193 l 1,23,-1
 338 97 l 1,16,-1
EndSplineSet
EndChar

StartChar: D
Encoding: 68 68 21
Width: 675
VWidth: 772
Flags: W
LayerCount: 2
Fore
SplineSet
338 0 m 1,0,-1
 241 97 l 1,1,-1
 241 387 l 1,2,-1
 48 483 l 1,3,-1
 241 580 l 1,4,-1
 435 483 l 1,5,-1
 435 193 l 1,6,-1
 531 97 l 1,7,-1
 338 0 l 1,0,-1
241 677 m 1,8,-1
 48 773 l 1,9,-1
 48 870 l 1,10,-1
 241 870 l 1,11,-1
 241 677 l 1,8,-1
435 483 m 1,12,-1
 435 773 l 1,13,-1
 241 870 l 1,14,-1
 435 967 l 1,15,-1
 628 870 l 1,16,-1
 628 580 l 1,17,-1
 435 483 l 1,12,-1
EndSplineSet
EndChar

StartChar: E
Encoding: 69 69 22
Width: 1159
VWidth: 772
Flags: W
LayerCount: 2
Fore
SplineSet
338 0 m 1,0,-1
 145 97 l 1,1,-1
 145 773 l 1,2,-1
 48 870 l 1,3,-1
 241 967 l 1,4,-1
 338 870 l 1,5,-1
 338 193 l 1,6,-1
 531 97 l 1,7,-1
 338 0 l 1,0,-1
531 97 m 1,8,-1
 531 870 l 1,9,-1
 725 967 l 1,10,-1
 822 870 l 1,11,-1
 725 870 l 1,12,-1
 725 193 l 1,13,-1
 531 97 l 1,8,-1
918 0 m 1,14,-1
 822 97 l 1,15,-1
 822 870 l 1,16,-1
 918 967 l 1,17,-1
 1112 870 l 1,18,-1
 1015 773 l 1,19,-1
 1015 193 l 1,20,-1
 1112 97 l 1,21,-1
 918 0 l 1,14,-1
EndSplineSet
EndChar

StartChar: F
Encoding: 70 70 23
Width: 869
VWidth: 772
Flags: W
LayerCount: 2
Fore
SplineSet
241 0 m 1,0,-1
 48 97 l 1,1,-1
 48 387 l 1,2,-1
 145 580 l 1,3,-1
 435 580 l 1,4,-1
 435 773 l 1,5,-1
 338 870 l 1,6,-1
 531 967 l 1,7,-1
 628 870 l 1,8,-1
 628 580 l 1,9,-1
 821 580 l 1,10,-1
 725 387 l 1,11,-1
 628 387 l 1,12,-1
 628 193 l 1,13,-1
 821 97 l 1,14,-1
 628 0 l 1,15,-1
 435 97 l 1,16,-1
 435 387 l 1,17,-1
 241 387 l 1,18,-1
 241 97 l 1,19,-1
 435 97 l 1,20,-1
 241 0 l 1,0,-1
EndSplineSet
EndChar

StartChar: G
Encoding: 71 71 24
Width: 966
VWidth: 772
Flags: W
LayerCount: 2
Fore
SplineSet
435 483 m 1,0,-1
 435 773 l 1,1,-1
 628 870 l 1,2,-1
 628 677 l 1,3,-1
 435 483 l 1,0,-1
338 0 m 1,4,-1
 145 97 l 1,5,-1
 145 773 l 1,6,-1
 48 870 l 1,7,-1
 241 967 l 1,8,-1
 338 870 l 1,9,-1
 338 193 l 1,10,-1
 531 97 l 1,11,-1
 338 0 l 1,4,-1
531 97 m 1,12,-1
 725 193 l 1,13,-1
 725 773 l 1,14,-1
 628 870 l 1,15,-1
 822 967 l 1,16,-1
 918 870 l 1,17,-1
 918 193 l 1,18,-1
 725 97 l 1,19,-1
 531 97 l 1,12,-1
EndSplineSet
EndChar

StartChar: H
Encoding: 72 72 25
Width: 869
VWidth: 772
Flags: W
LayerCount: 2
Fore
SplineSet
628 0 m 1,0,-1
 580 97 l 1,1,-1
 48 97 l 1,2,-1
 241 193 l 1,3,-1
 773 193 l 1,4,-1
 821 97 l 1,5,-1
 628 0 l 1,0,-1
531 290 m 1,6,-1
 483 387 l 1,7,-1
 145 387 l 1,8,-1
 338 483 l 1,9,-1
 676 483 l 1,10,-1
 725 387 l 1,11,-1
 531 290 l 1,6,-1
628 677 m 1,12,-1
 580 773 l 1,13,-1
 48 773 l 1,14,-1
 241 870 l 1,15,-1
 773 870 l 1,16,-1
 821 773 l 1,17,-1
 628 677 l 1,12,-1
EndSplineSet
EndChar

StartChar: I
Encoding: 73 73 26
Width: 675
VWidth: 772
Flags: W
LayerCount: 2
Fore
SplineSet
48 483 m 1,0,-1
 48 773 l 1,1,-1
 241 870 l 1,2,-1
 241 677 l 1,3,-1
 48 483 l 1,0,-1
435 0 m 1,4,-1
 338 97 l 1,5,-1
 338 773 l 1,6,-1
 241 870 l 1,7,-1
 435 967 l 1,8,-1
 531 870 l 1,9,-1
 531 193 l 1,10,-1
 628 97 l 1,11,-1
 435 0 l 1,4,-1
EndSplineSet
EndChar

StartChar: J
Encoding: 74 74 27
Width: 675
VWidth: 772
Flags: W
LayerCount: 2
Fore
SplineSet
241 0 m 1,0,-1
 48 97 l 1,1,-1
 241 193 l 1,2,-1
 435 97 l 1,3,-1
 241 0 l 1,0,-1
48 580 m 1,4,-1
 241 677 l 1,5,-1
 435 677 l 1,6,-1
 241 580 l 1,7,-1
 48 580 l 1,4,-1
435 97 m 1,8,-1
 435 677 l 1,9,-1
 628 870 l 1,10,-1
 628 193 l 1,11,-1
 435 97 l 1,8,-1
EndSplineSet
EndChar

StartChar: K
Encoding: 75 75 28
Width: 966
VWidth: 772
Flags: W
LayerCount: 2
Fore
SplineSet
241 0 m 1,0,-1
 48 97 l 1,1,-1
 241 193 l 1,2,-1
 435 97 l 1,3,-1
 241 0 l 1,0,-1
241 773 m 1,4,-1
 48 870 l 1,5,-1
 241 967 l 1,6,-1
 435 870 l 1,7,-1
 241 773 l 1,4,-1
725 0 m 1,8,-1
 628 97 l 1,9,-1
 435 97 l 1,10,-1
 628 193 l 1,11,-1
 628 870 l 1,12,-1
 435 870 l 1,13,-1
 628 967 l 1,14,-1
 822 870 l 1,15,-1
 822 193 l 1,16,-1
 918 97 l 1,17,-1
 725 0 l 1,8,-1
EndSplineSet
EndChar

StartChar: L
Encoding: 76 76 29
Width: 675
VWidth: 772
Flags: W
LayerCount: 2
Fore
SplineSet
241 0 m 1,0,-1
 48 97 l 1,1,-1
 48 290 l 1,2,-1
 241 483 l 1,3,-1
 241 193 l 1,4,-1
 435 97 l 1,5,-1
 241 0 l 1,0,-1
435 97 m 1,6,-1
 435 773 l 1,7,-1
 338 870 l 1,8,-1
 531 967 l 1,9,-1
 628 870 l 1,10,-1
 628 97 l 1,11,-1
 435 97 l 1,6,-1
EndSplineSet
EndChar

StartChar: M
Encoding: 77 77 30
Width: 772
VWidth: 772
Flags: W
LayerCount: 2
Fore
SplineSet
435 0 m 1,0,-1
 338 97 l 1,1,-1
 531 193 l 1,2,-1
 628 97 l 1,3,-1
 435 0 l 1,0,-1
145 0 m 1,4,-1
 48 97 l 1,5,-1
 48 387 l 1,6,-1
 241 483 l 1,7,-1
 241 193 l 1,8,-1
 338 97 l 1,9,-1
 145 0 l 1,4,-1
241 483 m 1,10,-1
 241 773 l 1,11,-1
 435 870 l 1,12,-1
 435 580 l 1,13,-1
 241 483 l 1,10,-1
628 773 m 1,14,-1
 435 870 l 1,15,-1
 628 967 l 1,16,-1
 725 870 l 1,17,-1
 628 773 l 1,14,-1
EndSplineSet
EndChar

StartChar: N
Encoding: 78 78 31
Width: 1159
VWidth: 772
Flags: W
LayerCount: 2
Fore
SplineSet
628 0 m 1,0,-1
 435 97 l 1,1,-1
 435 870 l 1,2,-1
 628 870 l 1,3,-1
 628 193 l 1,4,-1
 725 97 l 1,5,-1
 628 0 l 1,0,-1
241 97 m 1,6,-1
 48 193 l 1,7,-1
 48 870 l 1,8,-1
 145 967 l 1,9,-1
 338 870 l 1,10,-1
 241 773 l 1,11,-1
 241 193 l 1,12,-1
 435 97 l 1,13,-1
 241 97 l 1,6,-1
918 0 m 1,14,-1
 822 97 l 1,15,-1
 822 773 l 1,16,-1
 628 870 l 1,17,-1
 822 967 l 1,18,-1
 1015 870 l 1,19,-1
 1015 193 l 1,20,-1
 1112 97 l 1,21,-1
 918 0 l 1,14,-1
EndSplineSet
EndChar

StartChar: O
Encoding: 79 79 32
Width: 966
VWidth: 772
Flags: W
LayerCount: 2
Fore
SplineSet
435 0 m 1,0,-1
 338 97 l 1,1,-1
 531 193 l 1,2,-1
 628 97 l 1,3,-1
 435 0 l 1,0,-1
145 0 m 1,4,-1
 48 97 l 1,5,-1
 48 387 l 1,6,-1
 241 483 l 1,7,-1
 241 193 l 1,8,-1
 338 97 l 1,9,-1
 145 0 l 1,4,-1
241 483 m 1,10,-1
 241 773 l 1,11,-1
 145 870 l 1,12,-1
 338 967 l 1,13,-1
 435 870 l 1,14,-1
 435 580 l 1,15,-1
 241 483 l 1,10,-1
725 0 m 1,16,-1
 628 97 l 1,17,-1
 628 483 l 1,18,-1
 531 580 l 1,19,-1
 531 773 l 1,20,-1
 435 870 l 1,21,-1
 628 967 l 1,22,-1
 725 870 l 1,23,-1
 725 580 l 1,24,-1
 822 483 l 1,25,-1
 822 193 l 1,26,-1
 918 97 l 1,27,-1
 725 0 l 1,16,-1
EndSplineSet
EndChar

StartChar: P
Encoding: 80 80 33
Width: 966
VWidth: 772
Flags: W
LayerCount: 2
Fore
SplineSet
435 0 m 1,0,-1
 48 193 l 1,1,-1
 48 870 l 1,2,-1
 145 967 l 1,3,-1
 338 870 l 1,4,-1
 241 773 l 1,5,-1
 241 290 l 1,6,-1
 628 97 l 1,7,-1
 435 0 l 1,0,-1
338 483 m 1,8,-1
 338 870 l 1,9,-1
 531 967 l 1,10,-1
 531 580 l 1,11,-1
 338 483 l 1,8,-1
725 0 m 1,12,-1
 628 97 l 1,13,-1
 628 870 l 1,14,-1
 822 967 l 1,15,-1
 822 193 l 1,16,-1
 918 97 l 1,17,-1
 725 0 l 1,12,-1
EndSplineSet
EndChar

StartChar: Q
Encoding: 81 81 34
Width: 772
VWidth: 772
Flags: W
LayerCount: 2
Fore
SplineSet
241 0 m 1,0,-1
 145 97 l 1,1,-1
 145 773 l 1,2,-1
 48 870 l 1,3,-1
 241 967 l 1,4,-1
 338 870 l 1,5,-1
 338 97 l 1,6,-1
 435 97 l 1,7,-1
 241 0 l 1,0,-1
531 483 m 1,8,-1
 531 870 l 1,9,-1
 338 870 l 1,10,-1
 531 967 l 1,11,-1
 725 870 l 1,12,-1
 725 580 l 1,13,-1
 531 483 l 1,8,-1
EndSplineSet
EndChar

StartChar: R
Encoding: 82 82 35
Width: 675
VWidth: 772
Flags: W
LayerCount: 2
Fore
SplineSet
338 0 m 1,0,-1
 241 97 l 1,1,-1
 241 387 l 1,2,-1
 435 483 l 1,3,-1
 435 193 l 1,4,-1
 531 97 l 1,5,-1
 338 0 l 1,0,-1
241 677 m 1,6,-1
 48 773 l 1,7,-1
 48 870 l 1,8,-1
 241 870 l 1,9,-1
 241 677 l 1,6,-1
435 483 m 1,10,-1
 435 773 l 1,11,-1
 241 870 l 1,12,-1
 435 967 l 1,13,-1
 628 870 l 1,14,-1
 628 580 l 1,15,-1
 435 483 l 1,10,-1
EndSplineSet
EndChar

StartChar: S
Encoding: 83 83 36
Width: 869
VWidth: 772
Flags: W
LayerCount: 2
Fore
SplineSet
338 0 m 1,0,-1
 145 97 l 1,1,-1
 338 193 l 1,2,-1
 435 97 l 1,3,-1
 338 0 l 1,0,-1
338 290 m 1,4,-1
 145 387 l 1,5,-1
 145 773 l 1,6,-1
 48 870 l 1,7,-1
 241 967 l 1,8,-1
 338 870 l 1,9,-1
 338 483 l 1,10,-1
 531 387 l 1,11,-1
 338 290 l 1,4,-1
628 0 m 1,12,-1
 531 97 l 1,13,-1
 531 773 l 1,14,-1
 435 870 l 1,15,-1
 628 967 l 1,16,-1
 725 870 l 1,17,-1
 725 193 l 1,18,-1
 821 97 l 1,19,-1
 628 0 l 1,12,-1
EndSplineSet
EndChar

StartChar: T
Encoding: 84 84 37
Width: 1062
VWidth: 772
Flags: W
LayerCount: 2
Fore
SplineSet
241 0 m 1,0,-1
 48 97 l 1,1,-1
 48 290 l 1,2,-1
 241 483 l 1,3,-1
 241 193 l 1,4,-1
 435 97 l 1,5,-1
 241 0 l 1,0,-1
821 97 m 1,6,-1
 821 290 l 1,7,-1
 1015 483 l 1,8,-1
 1015 193 l 1,9,-1
 821 97 l 1,6,-1
628 0 m 1,10,-1
 435 97 l 1,11,-1
 435 773 l 1,12,-1
 338 870 l 1,13,-1
 531 967 l 1,14,-1
 628 870 l 1,15,-1
 628 193 l 1,16,-1
 821 97 l 1,17,-1
 628 0 l 1,10,-1
EndSplineSet
EndChar

StartChar: U
Encoding: 85 85 38
Width: 1062
VWidth: 772
Flags: W
LayerCount: 2
Fore
SplineSet
435 580 m 1,0,-1
 435 773 l 1,1,-1
 628 870 l 1,2,-1
 628 773 l 1,3,-1
 435 580 l 1,0,-1
338 0 m 1,4,-1
 145 97 l 1,5,-1
 145 773 l 1,6,-1
 48 870 l 1,7,-1
 241 967 l 1,8,-1
 338 870 l 1,9,-1
 338 97 l 1,10,-1
 531 97 l 1,11,-1
 338 0 l 1,4,-1
821 0 m 1,12,-1
 725 97 l 1,13,-1
 531 97 l 1,14,-1
 725 193 l 1,15,-1
 725 773 l 1,16,-1
 628 870 l 1,17,-1
 821 967 l 1,18,-1
 918 870 l 1,19,-1
 918 193 l 1,20,-1
 1015 97 l 1,21,-1
 821 0 l 1,12,-1
EndSplineSet
EndChar

StartChar: V
Encoding: 86 86 39
Width: 772
VWidth: 772
Flags: W
LayerCount: 2
Fore
SplineSet
338 0 m 1,0,-1
 145 97 l 1,1,-1
 145 773 l 1,2,-1
 48 870 l 1,3,-1
 241 967 l 1,4,-1
 338 870 l 1,5,-1
 338 193 l 1,6,-1
 531 97 l 1,7,-1
 338 0 l 1,0,-1
338 387 m 1,8,-1
 531 483 l 1,9,-1
 531 773 l 1,10,-1
 435 870 l 1,11,-1
 531 967 l 1,12,-1
 725 870 l 1,13,-1
 725 483 l 1,14,-1
 531 387 l 1,15,-1
 338 387 l 1,8,-1
EndSplineSet
EndChar

StartChar: W
Encoding: 87 87 40
Width: 966
VWidth: 772
Flags: W
LayerCount: 2
Fore
SplineSet
338 0 m 1,0,-1
 145 97 l 1,1,-1
 145 773 l 1,2,-1
 48 870 l 1,3,-1
 241 967 l 1,4,-1
 338 870 l 1,5,-1
 435 870 l 1,6,-1
 338 773 l 1,7,-1
 338 97 l 1,8,-1
 531 97 l 1,9,-1
 338 0 l 1,0,-1
725 0 m 1,10,-1
 628 97 l 1,11,-1
 531 97 l 1,12,-1
 628 193 l 1,13,-1
 628 870 l 1,14,-1
 435 870 l 1,15,-1
 628 967 l 1,16,-1
 822 870 l 1,17,-1
 822 193 l 1,18,-1
 918 97 l 1,19,-1
 725 0 l 1,10,-1
EndSplineSet
EndChar

StartChar: X
Encoding: 88 88 41
Width: 772
VWidth: 772
Flags: W
LayerCount: 2
Fore
SplineSet
241 0 m 1,0,-1
 48 97 l 1,1,-1
 48 677 l 1,2,-1
 241 773 l 1,3,-1
 241 193 l 1,4,-1
 435 97 l 1,5,-1
 241 0 l 1,0,-1
531 0 m 1,6,-1
 435 97 l 1,7,-1
 435 677 l 1,8,-1
 241 773 l 1,9,-1
 145 870 l 1,10,-1
 241 967 l 1,11,-1
 628 773 l 1,12,-1
 628 193 l 1,13,-1
 725 97 l 1,14,-1
 531 0 l 1,6,-1
EndSplineSet
EndChar

StartChar: Y
Encoding: 89 89 42
Width: 772
VWidth: 772
Flags: W
LayerCount: 2
Fore
SplineSet
338 0 m 1,0,-1
 145 97 l 1,1,-1
 145 773 l 1,2,-1
 48 870 l 1,3,-1
 145 967 l 1,4,-1
 338 870 l 1,5,-1
 435 677 l 1,6,-1
 338 677 l 1,7,-1
 338 193 l 1,8,-1
 531 97 l 1,9,-1
 338 0 l 1,0,-1
531 97 m 1,10,-1
 531 773 l 1,11,-1
 435 870 l 1,12,-1
 531 967 l 1,13,-1
 725 870 l 1,14,-1
 725 193 l 1,15,-1
 531 97 l 1,10,-1
EndSplineSet
EndChar

StartChar: Z
Encoding: 90 90 43
Width: 772
VWidth: 772
Flags: W
LayerCount: 2
Fore
SplineSet
241 0 m 1,0,-1
 48 97 l 1,1,-1
 241 193 l 1,2,-1
 241 97 l 1,3,-1
 435 97 l 1,4,-1
 241 0 l 1,0,-1
531 0 m 1,5,-1
 435 97 l 1,6,-1
 435 387 l 1,7,-1
 241 387 l 1,8,-1
 145 290 l 1,9,-1
 145 387 l 1,10,-1
 241 580 l 1,11,-1
 435 580 l 1,12,-1
 435 773 l 1,13,-1
 338 870 l 1,14,-1
 531 967 l 1,15,-1
 628 870 l 1,16,-1
 628 580 l 1,17,-1
 725 580 l 1,18,-1
 628 387 l 1,19,-1
 628 193 l 1,20,-1
 725 97 l 1,21,-1
 531 0 l 1,5,-1
EndSplineSet
EndChar

StartChar: grave
Encoding: 96 96 44
Width: 192
VWidth: 772
Flags: W
LayerCount: 2
Fore
SplineSet
48 1063 m 1,0,-1
 48 1257 l 1,1,-1
 145 1257 l 1,2,-1
 145 1063 l 1,3,-1
 48 1063 l 1,0,-1
EndSplineSet
EndChar

StartChar: a
Encoding: 97 97 45
Width: 869
VWidth: 772
Flags: W
LayerCount: 2
Fore
SplineSet
338 0 m 1,0,-1
 145 97 l 1,1,-1
 145 193 l 1,2,-1
 338 290 l 1,3,-1
 338 193 l 1,4,-1
 435 97 l 1,5,-1
 338 0 l 1,0,-1
628 0 m 1,6,-1
 531 97 l 1,7,-1
 531 290 l 1,8,-1
 338 290 l 1,9,-1
 531 387 l 1,10,-1
 725 290 l 1,11,-1
 725 193 l 1,12,-1
 821 97 l 1,13,-1
 628 0 l 1,6,-1
145 387 m 1,14,-1
 145 580 l 1,15,-1
 48 677 l 1,16,-1
 241 773 l 1,17,-1
 338 677 l 1,18,-1
 338 387 l 1,19,-1
 145 387 l 1,14,-1
338 483 m 1,20,-1
 531 580 l 1,21,-1
 435 677 l 1,22,-1
 531 773 l 1,23,-1
 725 677 l 1,24,-1
 725 580 l 1,25,-1
 531 483 l 1,26,-1
 338 483 l 1,20,-1
EndSplineSet
EndChar

StartChar: b
Encoding: 98 98 46
Width: 772
VWidth: 772
Flags: W
LayerCount: 2
Fore
SplineSet
338 0 m 1,0,-1
 145 97 l 1,1,-1
 145 193 l 1,2,-1
 338 290 l 1,3,-1
 338 193 l 1,4,-1
 531 97 l 1,5,-1
 338 0 l 1,0,-1
531 97 m 1,6,-1
 531 193 l 1,7,-1
 725 290 l 1,8,-1
 725 97 l 1,9,-1
 531 97 l 1,6,-1
435 290 m 1,10,-1
 435 387 l 1,11,-1
 241 387 l 1,12,-1
 435 483 l 1,13,-1
 628 387 l 1,14,-1
 435 290 l 1,10,-1
145 483 m 1,15,-1
 145 580 l 1,16,-1
 48 677 l 1,17,-1
 241 773 l 1,18,-1
 338 677 l 1,19,-1
 338 580 l 1,20,-1
 145 483 l 1,15,-1
531 483 m 1,21,-1
 531 580 l 1,22,-1
 338 677 l 1,23,-1
 531 773 l 1,24,-1
 725 677 l 1,25,-1
 725 580 l 1,26,-1
 531 483 l 1,21,-1
EndSplineSet
EndChar

StartChar: c
Encoding: 99 99 47
Width: 1255
VWidth: 772
Flags: W
LayerCount: 2
Fore
SplineSet
725 97 m 1,0,-1
 531 193 l 1,1,-1
 531 387 l 1,2,-1
 338 483 l 1,3,-1
 531 580 l 1,4,-1
 725 483 l 1,5,-1
 725 290 l 1,6,-1
 918 193 l 1,7,-1
 725 97 l 1,0,-1
1015 0 m 1,8,-1
 918 97 l 1,9,-1
 918 387 l 1,10,-1
 725 483 l 1,11,-1
 918 580 l 1,12,-1
 1111 483 l 1,13,-1
 1111 193 l 1,14,-1
 1208 97 l 1,15,-1
 1015 0 l 1,8,-1
338 97 m 1,16,-1
 145 193 l 1,17,-1
 145 580 l 1,18,-1
 48 677 l 1,19,-1
 241 773 l 1,20,-1
 338 677 l 1,21,-1
 338 290 l 1,22,-1
 531 193 l 1,23,-1
 338 97 l 1,16,-1
EndSplineSet
EndChar

StartChar: d
Encoding: 100 100 48
Width: 675
VWidth: 772
Flags: W
LayerCount: 2
Fore
SplineSet
338 0 m 1,0,-1
 241 97 l 1,1,-1
 241 193 l 1,2,-1
 48 290 l 1,3,-1
 241 387 l 1,4,-1
 435 290 l 1,5,-1
 435 193 l 1,6,-1
 531 97 l 1,7,-1
 338 0 l 1,0,-1
241 483 m 1,8,-1
 48 580 l 1,9,-1
 48 677 l 1,10,-1
 241 677 l 1,11,-1
 241 483 l 1,8,-1
435 290 m 1,12,-1
 435 580 l 1,13,-1
 241 677 l 1,14,-1
 435 773 l 1,15,-1
 628 677 l 1,16,-1
 628 387 l 1,17,-1
 435 290 l 1,12,-1
EndSplineSet
EndChar

StartChar: e
Encoding: 101 101 49
Width: 1159
VWidth: 772
Flags: W
LayerCount: 2
Fore
SplineSet
338 0 m 1,0,-1
 145 97 l 1,1,-1
 145 580 l 1,2,-1
 48 677 l 1,3,-1
 241 773 l 1,4,-1
 338 677 l 1,5,-1
 338 193 l 1,6,-1
 531 97 l 1,7,-1
 338 0 l 1,0,-1
531 97 m 1,8,-1
 531 677 l 1,9,-1
 725 773 l 1,10,-1
 822 677 l 1,11,-1
 725 677 l 1,12,-1
 725 193 l 1,13,-1
 531 97 l 1,8,-1
918 0 m 1,14,-1
 822 97 l 1,15,-1
 822 677 l 1,16,-1
 918 773 l 1,17,-1
 1112 677 l 1,18,-1
 1015 580 l 1,19,-1
 1015 193 l 1,20,-1
 1112 97 l 1,21,-1
 918 0 l 1,14,-1
EndSplineSet
EndChar

StartChar: f
Encoding: 102 102 50
Width: 869
VWidth: 772
Flags: W
LayerCount: 2
Fore
SplineSet
241 0 m 1,0,-1
 48 97 l 1,1,-1
 48 290 l 1,2,-1
 145 483 l 1,3,-1
 435 483 l 1,4,-1
 435 580 l 1,5,-1
 338 677 l 1,6,-1
 531 773 l 1,7,-1
 628 677 l 1,8,-1
 628 483 l 1,9,-1
 821 483 l 1,10,-1
 725 290 l 1,11,-1
 628 290 l 1,12,-1
 628 193 l 1,13,-1
 821 97 l 1,14,-1
 628 0 l 1,15,-1
 435 97 l 1,16,-1
 435 290 l 1,17,-1
 241 290 l 1,18,-1
 241 97 l 1,19,-1
 435 97 l 1,20,-1
 241 0 l 1,0,-1
EndSplineSet
EndChar

StartChar: g
Encoding: 103 103 51
Width: 869
VWidth: 772
Flags: W
LayerCount: 2
Fore
SplineSet
338 0 m 1,0,-1
 145 97 l 1,1,-1
 145 580 l 1,2,-1
 48 677 l 1,3,-1
 241 773 l 1,4,-1
 338 677 l 1,5,-1
 338 193 l 1,6,-1
 531 97 l 1,7,-1
 338 0 l 1,0,-1
531 97 m 1,8,-1
 628 193 l 1,9,-1
 628 677 l 1,10,-1
 531 677 l 1,11,-1
 531 580 l 1,12,-1
 435 677 l 1,13,-1
 628 773 l 1,14,-1
 821 677 l 1,15,-1
 821 193 l 1,16,-1
 628 97 l 1,17,-1
 531 97 l 1,8,-1
EndSplineSet
EndChar

StartChar: h
Encoding: 104 104 52
Width: 869
VWidth: 772
Flags: W
LayerCount: 2
Fore
SplineSet
628 0 m 1,0,-1
 580 97 l 1,1,-1
 48 97 l 1,2,-1
 241 193 l 1,3,-1
 773 193 l 1,4,-1
 821 97 l 1,5,-1
 628 0 l 1,0,-1
628 242 m 1,6,-1
 628 290 l 1,7,-1
 145 290 l 1,8,-1
 338 387 l 1,9,-1
 676 387 l 1,10,-1
 725 290 l 1,11,-1
 628 242 l 1,6,-1
628 483 m 1,12,-1
 580 580 l 1,13,-1
 48 580 l 1,14,-1
 241 677 l 1,15,-1
 773 677 l 1,16,-1
 821 580 l 1,17,-1
 628 483 l 1,12,-1
EndSplineSet
EndChar

StartChar: i
Encoding: 105 105 53
Width: 675
VWidth: 772
Flags: W
LayerCount: 2
Fore
SplineSet
48 290 m 1,0,-1
 48 580 l 1,1,-1
 241 677 l 1,2,-1
 241 483 l 1,3,-1
 48 290 l 1,0,-1
435 0 m 1,4,-1
 338 97 l 1,5,-1
 338 580 l 1,6,-1
 241 677 l 1,7,-1
 435 773 l 1,8,-1
 531 677 l 1,9,-1
 531 193 l 1,10,-1
 628 97 l 1,11,-1
 435 0 l 1,4,-1
EndSplineSet
EndChar

StartChar: j
Encoding: 106 106 54
Width: 675
VWidth: 772
Flags: W
LayerCount: 2
Fore
SplineSet
241 0 m 1,0,-1
 48 97 l 1,1,-1
 241 193 l 1,2,-1
 435 97 l 1,3,-1
 241 0 l 1,0,-1
48 483 m 1,4,-1
 241 580 l 1,5,-1
 435 580 l 1,6,-1
 241 483 l 1,7,-1
 48 483 l 1,4,-1
435 97 m 1,8,-1
 435 580 l 1,9,-1
 628 773 l 1,10,-1
 628 193 l 1,11,-1
 435 97 l 1,8,-1
EndSplineSet
EndChar

StartChar: k
Encoding: 107 107 55
Width: 772
VWidth: 772
Flags: W
LayerCount: 2
Fore
SplineSet
241 0 m 1,0,-1
 48 97 l 1,1,-1
 241 193 l 1,2,-1
 241 97 l 1,3,-1
 435 97 l 1,4,-1
 241 0 l 1,0,-1
241 580 m 1,5,-1
 48 677 l 1,6,-1
 241 773 l 1,7,-1
 241 677 l 1,8,-1
 435 677 l 1,9,-1
 241 580 l 1,5,-1
531 0 m 1,10,-1
 435 97 l 1,11,-1
 435 773 l 1,12,-1
 628 677 l 1,13,-1
 628 193 l 1,14,-1
 725 97 l 1,15,-1
 531 0 l 1,10,-1
EndSplineSet
EndChar

StartChar: l
Encoding: 108 108 56
Width: 675
VWidth: 772
Flags: W
LayerCount: 2
Fore
SplineSet
241 0 m 1,0,-1
 48 97 l 1,1,-1
 48 193 l 1,2,-1
 241 387 l 1,3,-1
 241 193 l 1,4,-1
 435 97 l 1,5,-1
 241 0 l 1,0,-1
435 97 m 1,6,-1
 435 580 l 1,7,-1
 338 677 l 1,8,-1
 531 773 l 1,9,-1
 628 677 l 1,10,-1
 628 97 l 1,11,-1
 435 97 l 1,6,-1
EndSplineSet
EndChar

StartChar: m
Encoding: 109 109 57
Width: 772
VWidth: 772
Flags: W
LayerCount: 2
Fore
SplineSet
435 0 m 1,0,-1
 338 97 l 1,1,-1
 531 193 l 1,2,-1
 628 97 l 1,3,-1
 435 0 l 1,0,-1
145 0 m 1,4,-1
 48 97 l 1,5,-1
 48 290 l 1,6,-1
 241 387 l 1,7,-1
 241 193 l 1,8,-1
 338 97 l 1,9,-1
 145 0 l 1,4,-1
241 387 m 1,10,-1
 241 580 l 1,11,-1
 435 677 l 1,12,-1
 435 483 l 1,13,-1
 241 387 l 1,10,-1
628 580 m 1,14,-1
 435 677 l 1,15,-1
 628 773 l 1,16,-1
 725 677 l 1,17,-1
 628 580 l 1,14,-1
EndSplineSet
EndChar

StartChar: n
Encoding: 110 110 58
Width: 1159
VWidth: 772
Flags: W
LayerCount: 2
Fore
SplineSet
628 0 m 1,0,-1
 435 97 l 1,1,-1
 435 677 l 1,2,-1
 628 677 l 1,3,-1
 628 193 l 1,4,-1
 725 97 l 1,5,-1
 628 0 l 1,0,-1
241 97 m 1,6,-1
 48 193 l 1,7,-1
 48 677 l 1,8,-1
 145 773 l 1,9,-1
 338 677 l 1,10,-1
 241 580 l 1,11,-1
 241 193 l 1,12,-1
 435 97 l 1,13,-1
 241 97 l 1,6,-1
918 0 m 1,14,-1
 822 97 l 1,15,-1
 822 580 l 1,16,-1
 628 677 l 1,17,-1
 822 773 l 1,18,-1
 1015 677 l 1,19,-1
 1015 193 l 1,20,-1
 1112 97 l 1,21,-1
 918 0 l 1,14,-1
EndSplineSet
EndChar

StartChar: o
Encoding: 111 111 59
Width: 966
VWidth: 772
Flags: W
LayerCount: 2
Fore
SplineSet
435 0 m 1,0,-1
 338 97 l 1,1,-1
 531 193 l 1,2,-1
 628 97 l 1,3,-1
 435 0 l 1,0,-1
145 0 m 1,4,-1
 48 97 l 1,5,-1
 48 290 l 1,6,-1
 241 387 l 1,7,-1
 241 193 l 1,8,-1
 338 97 l 1,9,-1
 145 0 l 1,4,-1
241 387 m 1,10,-1
 241 580 l 1,11,-1
 145 677 l 1,12,-1
 338 773 l 1,13,-1
 435 677 l 1,14,-1
 435 483 l 1,15,-1
 241 387 l 1,10,-1
725 0 m 1,16,-1
 628 97 l 1,17,-1
 628 387 l 1,18,-1
 531 483 l 1,19,-1
 531 580 l 1,20,-1
 435 677 l 1,21,-1
 628 773 l 1,22,-1
 725 677 l 1,23,-1
 725 483 l 1,24,-1
 822 387 l 1,25,-1
 822 193 l 1,26,-1
 918 97 l 1,27,-1
 725 0 l 1,16,-1
EndSplineSet
EndChar

StartChar: p
Encoding: 112 112 60
Width: 966
VWidth: 772
Flags: W
LayerCount: 2
Fore
SplineSet
435 0 m 1,0,-1
 48 193 l 1,1,-1
 48 677 l 1,2,-1
 145 773 l 1,3,-1
 338 677 l 1,4,-1
 241 580 l 1,5,-1
 241 290 l 1,6,-1
 628 97 l 1,7,-1
 435 0 l 1,0,-1
338 290 m 1,8,-1
 338 677 l 1,9,-1
 531 773 l 1,10,-1
 531 387 l 1,11,-1
 338 290 l 1,8,-1
725 0 m 1,12,-1
 628 97 l 1,13,-1
 628 677 l 1,14,-1
 822 773 l 1,15,-1
 822 193 l 1,16,-1
 918 97 l 1,17,-1
 725 0 l 1,12,-1
EndSplineSet
EndChar

StartChar: q
Encoding: 113 113 61
Width: 772
VWidth: 772
Flags: W
LayerCount: 2
Fore
SplineSet
241 0 m 1,0,-1
 145 97 l 1,1,-1
 145 580 l 1,2,-1
 48 677 l 1,3,-1
 241 773 l 1,4,-1
 338 677 l 1,5,-1
 338 97 l 1,6,-1
 435 97 l 1,7,-1
 241 0 l 1,0,-1
531 290 m 1,8,-1
 531 677 l 1,9,-1
 338 677 l 1,10,-1
 531 773 l 1,11,-1
 725 677 l 1,12,-1
 725 387 l 1,13,-1
 531 290 l 1,8,-1
EndSplineSet
EndChar

StartChar: r
Encoding: 114 114 62
Width: 675
VWidth: 772
Flags: W
LayerCount: 2
Fore
SplineSet
338 0 m 1,0,-1
 241 97 l 1,1,-1
 241 290 l 1,2,-1
 435 387 l 1,3,-1
 435 193 l 1,4,-1
 531 97 l 1,5,-1
 338 0 l 1,0,-1
241 483 m 1,6,-1
 48 580 l 1,7,-1
 48 677 l 1,8,-1
 241 677 l 1,9,-1
 241 483 l 1,6,-1
435 387 m 1,10,-1
 435 580 l 1,11,-1
 241 677 l 1,12,-1
 435 773 l 1,13,-1
 628 677 l 1,14,-1
 628 483 l 1,15,-1
 435 387 l 1,10,-1
EndSplineSet
EndChar

StartChar: s
Encoding: 115 115 63
Width: 869
VWidth: 772
Flags: W
LayerCount: 2
Fore
SplineSet
338 0 m 1,0,-1
 145 97 l 1,1,-1
 338 193 l 1,2,-1
 435 97 l 1,3,-1
 338 0 l 1,0,-1
338 290 m 1,4,-1
 145 387 l 1,5,-1
 145 580 l 1,6,-1
 48 677 l 1,7,-1
 241 773 l 1,8,-1
 338 677 l 1,9,-1
 338 483 l 1,10,-1
 531 387 l 1,11,-1
 338 290 l 1,4,-1
628 0 m 1,12,-1
 531 97 l 1,13,-1
 531 580 l 1,14,-1
 435 677 l 1,15,-1
 628 773 l 1,16,-1
 725 677 l 1,17,-1
 725 193 l 1,18,-1
 821 97 l 1,19,-1
 628 0 l 1,12,-1
EndSplineSet
EndChar

StartChar: t
Encoding: 116 116 64
Width: 966
VWidth: 772
Flags: W
LayerCount: 2
Fore
SplineSet
290 0 m 1,0,-1
 96 97 l 1,1,-1
 96 193 l 1,2,-1
 290 387 l 1,3,-1
 290 193 l 1,4,-1
 386 97 l 1,5,-1
 290 0 l 1,0,-1
677 97 m 1,6,-1
 677 193 l 1,7,-1
 870 387 l 1,8,-1
 870 193 l 1,9,-1
 677 97 l 1,6,-1
580 0 m 1,10,-1
 386 97 l 1,11,-1
 386 580 l 1,12,-1
 290 677 l 1,13,-1
 483 773 l 1,14,-1
 580 677 l 1,15,-1
 580 193 l 1,16,-1
 677 97 l 1,17,-1
 580 0 l 1,10,-1
EndSplineSet
EndChar

StartChar: u
Encoding: 117 117 65
Width: 966
VWidth: 772
Flags: W
LayerCount: 2
Fore
SplineSet
338 0 m 1,0,-1
 145 97 l 1,1,-1
 145 580 l 1,2,-1
 48 677 l 1,3,-1
 241 773 l 1,4,-1
 338 677 l 1,5,-1
 338 97 l 1,6,-1
 531 97 l 1,7,-1
 338 0 l 1,0,-1
725 0 m 1,8,-1
 628 97 l 1,9,-1
 531 97 l 1,10,-1
 628 193 l 1,11,-1
 628 580 l 1,12,-1
 531 580 l 1,13,-1
 531 483 l 1,14,-1
 435 580 l 1,15,-1
 531 677 l 1,16,-1
 725 773 l 1,17,-1
 822 677 l 1,18,-1
 822 193 l 1,19,-1
 918 97 l 1,20,-1
 725 0 l 1,8,-1
EndSplineSet
EndChar

StartChar: v
Encoding: 118 118 66
Width: 772
VWidth: 772
Flags: W
LayerCount: 2
Fore
SplineSet
338 0 m 1,0,-1
 145 97 l 1,1,-1
 145 580 l 1,2,-1
 48 677 l 1,3,-1
 241 773 l 1,4,-1
 338 677 l 1,5,-1
 338 193 l 1,6,-1
 531 97 l 1,7,-1
 338 0 l 1,0,-1
338 290 m 1,8,-1
 531 387 l 1,9,-1
 531 580 l 1,10,-1
 435 677 l 1,11,-1
 531 773 l 1,12,-1
 725 677 l 1,13,-1
 725 387 l 1,14,-1
 531 290 l 1,15,-1
 338 290 l 1,8,-1
EndSplineSet
EndChar

StartChar: w
Encoding: 119 119 67
Width: 966
VWidth: 772
Flags: W
LayerCount: 2
Fore
SplineSet
338 0 m 1,0,-1
 145 97 l 1,1,-1
 145 580 l 1,2,-1
 48 677 l 1,3,-1
 241 773 l 1,4,-1
 338 677 l 1,5,-1
 435 677 l 1,6,-1
 338 580 l 1,7,-1
 338 97 l 1,8,-1
 531 97 l 1,9,-1
 338 0 l 1,0,-1
725 0 m 1,10,-1
 628 97 l 1,11,-1
 531 97 l 1,12,-1
 628 193 l 1,13,-1
 628 677 l 1,14,-1
 435 677 l 1,15,-1
 628 773 l 1,16,-1
 822 677 l 1,17,-1
 822 193 l 1,18,-1
 918 97 l 1,19,-1
 725 0 l 1,10,-1
EndSplineSet
EndChar

StartChar: x
Encoding: 120 120 68
Width: 772
VWidth: 772
Flags: W
LayerCount: 2
Fore
SplineSet
241 0 m 1,0,-1
 48 97 l 1,1,-1
 48 483 l 1,2,-1
 241 580 l 1,3,-1
 241 193 l 1,4,-1
 435 97 l 1,5,-1
 241 0 l 1,0,-1
531 0 m 1,6,-1
 435 97 l 1,7,-1
 435 483 l 1,8,-1
 241 580 l 1,9,-1
 145 677 l 1,10,-1
 241 773 l 1,11,-1
 628 580 l 1,12,-1
 628 193 l 1,13,-1
 725 97 l 1,14,-1
 531 0 l 1,6,-1
EndSplineSet
EndChar

StartChar: y
Encoding: 121 121 69
Width: 772
VWidth: 772
Flags: W
LayerCount: 2
Fore
SplineSet
338 0 m 1,0,-1
 145 97 l 1,1,-1
 145 580 l 1,2,-1
 48 677 l 1,3,-1
 145 773 l 1,4,-1
 338 677 l 1,5,-1
 435 483 l 1,6,-1
 338 483 l 1,7,-1
 338 193 l 1,8,-1
 531 97 l 1,9,-1
 338 0 l 1,0,-1
531 97 m 1,10,-1
 531 580 l 1,11,-1
 435 677 l 1,12,-1
 531 773 l 1,13,-1
 725 677 l 1,14,-1
 725 193 l 1,15,-1
 531 97 l 1,10,-1
EndSplineSet
EndChar

StartChar: z
Encoding: 122 122 70
Width: 772
VWidth: 772
Flags: W
LayerCount: 2
Fore
SplineSet
241 0 m 1,0,-1
 48 97 l 1,1,-1
 241 193 l 1,2,-1
 241 97 l 1,3,-1
 435 97 l 1,4,-1
 241 0 l 1,0,-1
531 0 m 1,5,-1
 435 97 l 1,6,-1
 435 290 l 1,7,-1
 241 290 l 1,8,-1
 145 193 l 1,9,-1
 145 290 l 1,10,-1
 241 483 l 1,11,-1
 435 483 l 1,12,-1
 435 580 l 1,13,-1
 338 677 l 1,14,-1
 531 773 l 1,15,-1
 628 677 l 1,16,-1
 628 483 l 1,17,-1
 725 483 l 1,18,-1
 628 290 l 1,19,-1
 628 193 l 1,20,-1
 725 97 l 1,21,-1
 531 0 l 1,5,-1
EndSplineSet
EndChar
